<?xml version="1.0" encoding="UTF-8"?>
<svg width="472px" height="309px" viewBox="0 0 472 309" version="1.1" xmlns="http://www.w3.org/2000/svg" xmlns:xlink="http://www.w3.org/1999/xlink">
    <!-- Generator: Sketch 55.2 (78181) - https://sketchapp.com -->
    <title>people</title>
    <desc>Created with Sketch.</desc>
    <g id="Page-1" stroke="none" stroke-width="1" fill="none" fill-rule="evenodd">
        <g id="polipixel-web" transform="translate(-290.000000, -248.000000)" fill-rule="nonzero">
            <g id="header">
                <g id="people" transform="translate(290.000000, 248.000000)">
                    <g id="Humaaan-1">
                        <g id="Head/Front/Airy">
                            <g id="Head" transform="translate(87.218182, 33.206589)" fill="#D4A181">
                                <path d="M5.8587033,29.8033321 C2.59127654,25.1295656 0.379813763,19.4018003 0.749350489,12.9836749 C1.8140887,-5.50873172 22.938049,-1.44063788 27.0470966,7.89274093 C31.1561442,17.2261198 30.6678826,40.9010092 25.3573046,42.5691444 C23.2394535,43.2343944 18.7278009,41.6047983 14.1359911,38.2320353 L17.0181818,63.0801753 L0,63.0801753 L5.8587033,29.8033321 Z" id="Path"></path>
                            </g>
                            <path d="M104.565346,30.34228 C102.322399,29.8940487 96.2831653,29.5858773 95.1694227,29.5860763 C94.4576886,29.5860763 93.6863856,29.7842291 93.2648463,28.9878378 C92.9196398,28.3356841 93.0461016,27.232713 92.9430768,26.4759124 C92.8234507,25.5967584 92.653533,24.7289445 92.4816622,23.863319 C91.9925789,21.4001361 91.2530135,19.0567202 90.2182077,16.8565474 C88.2765229,12.7287613 85.4320278,9.49544818 81.8409687,7.61399102 C77.8754071,5.53656947 73.3880481,5.0608833 69.1225261,5.48225649 C64.5578577,5.93307408 60.4257962,7.7693699 56.1160045,9.49743767 C52.0090074,11.1441354 47.7073535,11.7923101 43.4118844,10.9881597 C39.0840267,10.1780409 35.8139234,7.31954706 32.1634583,4.60648464 C28.4264067,1.82896287 24.1556766,0.0123629638 19.7378146,0.42995613 C15.6138908,0.819895439 11.8130386,2.89492961 8.40296475,5.66688081 C5.21244941,8.26037511 2.57986333,11.3806854 1.09357113,15.7722773 C-0.505348599,20.4963125 -0.503883759,25.6817094 2.12544717,29.8566464 C5.93655305,35.9082657 13.0117401,37.4731956 18.8979911,37.3176178 C22.302694,37.227892 25.6465259,36.4704945 28.8609665,35.0927753 C33.1478095,33.2552858 36.8523099,30.1409439 40.8627923,27.6140974 C42.7449083,26.4283637 44.6903366,25.4545101 46.7295126,24.7530173 C48.7083059,24.0720161 50.6573148,23.7596668 52.4489381,25.2163686 C54.3442374,26.7574247 56.0426013,28.2712248 58.2108432,29.2359267 C60.2908711,30.1614357 62.4941056,30.6791 64.7101978,30.6582104 C69.0219426,30.6176249 73.2723282,28.9804767 77.4600525,27.8838718 C80.875009,26.9897967 84.5288921,26.0987058 88.010416,26.9581638 C89.4631804,27.3168683 91.5851994,28.057355 92.1099264,29.8972319 C83.2785967,31.8477242 79.8101015,45.1573873 82.2997874,54.9279533 C83.6435049,60.2014845 91.7207756,66.3661868 94.8613247,63.5938118 C96.8509529,61.8374325 95.6430441,59.5316246 94.8613247,58.0094686 C93.3642905,55.0944733 92.8520959,51.3500612 95.6222113,49.3205863 C98.0116392,47.5702362 100.523958,51.7268531 100.571483,51.7222772 C101.228205,51.6592105 106.902858,47.7483374 110.81259,42.0413818 C114.669555,42.3200032 115.254712,39.22083 114.333745,36.6862888 C113.412777,34.1517477 107.664393,30.9620049 104.565346,30.34228 Z" id="hair" fill="#191847"></path>
                        </g>
                        <g id="Bottom/Sitting/Skinny-Jeans-1" transform="translate(37.000000, 167.000000)">
                            <g id="Objects/Seat/Cube" transform="translate(0.000000, 35.933724)">
                                <g id="Seat">
                                    <polygon id="Seat-Stuff" fill="#C5CFD6" points="19.5465302 0 74.2139459 0 81.3771186 105.79 0 105.79"></polygon>
                                    <polygon id="Seat-Stuff" fill-opacity="0.1" fill="#000000" points="19.5465302 0 36.3598635 0 46.4230093 105.79 0 105.79"></polygon>
                                </g>
                            </g>
                            <path d="M136.538983,17.7582121 C142.367566,13.526606 152.146545,18.9633512 152.139837,25.0153606 C152.119742,43.1229588 138.451974,128.464004 137.738362,133.858862 C137.02475,139.253721 129.380172,140.678707 128.935004,133.876543 C128.226665,123.053151 126.910659,85.5848228 128.227376,68.2421219 C128.770889,61.0834192 129.356224,54.2657098 129.932473,48.1833545 C122.760498,63.8427654 111.668675,86.2631796 96.6570016,115.444598 L88.507575,110.942955 C94.9070666,85.4504795 100.154553,67.4534703 104.250035,56.9519271 C111.262495,38.9707356 117.837823,23.5722423 120.605166,18.1482479 C124.958199,9.61630113 132.535348,12.5932238 136.538983,17.7582121 Z" id="Skin" fill="#D4A181"></path>
                            <path d="M104.04602,103.510021 L102.929468,18.6614789 C104.76878,4.12327226 127.787252,12.4361603 128.225185,20.3205533 C129.219428,38.2205663 123.427443,99.4501963 123.723662,104.783208 L104.04602,103.510021 Z" id="LegLower" fill="#1F28CF" transform="translate(115.634790, 57.738726) rotate(20.000000) translate(-115.634790, -57.738726) "></path>
                            <g id="Accessories/Shoe/Flat-Sneaker" transform="translate(102.516322, 120.963439) rotate(30.000000) translate(-102.516322, -120.963439) translate(81.516322, 111.963439)" fill="#E4E4E4">
                                <path d="M1.20326563,5.26344468 C0.399682796,7.83670194 -0.00210862518,9.75968944 -0.00210862518,11.032407 C-0.00210862518,12.5688069 0.21047261,14.8107964 0.635635086,17.7583755 C2.11594754,17.7583755 15.4197648,17.7583755 40.5470869,17.7583755 C41.5842441,13.6300157 40.9855369,11.4012471 38.7509651,11.0720696 C36.5163935,10.7428922 34.6600968,10.4456713 33.1820752,10.180407 L14.6996794,0.259798486 C14.3550795,0.074831061 13.9262815,0.205175488 13.7419322,0.550931004 C13.7240844,0.584405374 13.7089412,0.619262114 13.6966481,0.655165962 L12.49686,4.1593437 C10.428231,5.32143513 8.74725532,5.90248089 7.45393266,5.90248089 C6.4275583,5.90248089 5.0192144,5.41498779 3.228901,4.44000159 L3.22890134,4.44000095 C2.54194343,4.0658908 1.68279137,4.32137138 1.3099315,5.01063285 C1.26632172,5.09124901 1.23059953,5.17591524 1.20326563,5.26344468 Z" id="shoe"></path>
                            </g>
                            <g id="Accessories/Shoe/Flat-Sneaker" transform="translate(125.957627, 124.131172)" fill="#E4E4E4">
                                <path d="M1.20537426,5.25506919 C0.401791421,7.82832645 0,9.75131395 0,11.0240315 C0,12.5604314 0.212581235,14.8024209 0.637743711,17.75 C2.11805617,17.75 15.4218734,17.75 40.5491956,17.75 C41.5863527,13.6216402 40.9876455,11.3928716 38.7530738,11.0636941 C36.5185021,10.7345167 34.6622055,10.4372959 33.1841838,10.1720315 L14.701788,0.251422999 C14.3571881,0.066455574 13.9283901,0.196800001 13.7440408,0.542555517 C13.726193,0.576029887 13.7110498,0.610886627 13.6987567,0.646790475 L12.4989686,4.15096821 C10.4303397,5.31305965 8.74936394,5.8941054 7.45604129,5.8941054 C6.42966693,5.8941054 5.02132302,5.4066123 3.23100962,4.4316261 L3.23100996,4.43162546 C2.54405206,4.05751531 1.68489999,4.31299589 1.31204012,5.00225736 C1.26843034,5.08287353 1.23270815,5.16753975 1.20537426,5.25506919 Z" id="shoe"></path>
                            </g>
                            <path d="M154.100222,31.1708181 C154.100222,53.9005858 145.172251,106.920191 145.166601,111.925089 L125.957627,111.942929 C128.769226,64.6340584 129.766198,40.7247954 128.948543,40.2151397 C127.72206,39.4506563 78.6710379,46.1363609 63.9598381,46.1363609 C42.7462151,46.1363609 33.9705647,29.962221 33.2584746,-4.40536496e-13 L75.281872,-4.40536496e-13 C83.8382132,1.10698707 128.468872,11.9909611 145.043814,15.7324798 C152.139831,17.334288 154.100222,24.9093522 154.100222,31.1708181 Z" id="Leg-and-Butt" fill="#2B44FF"></path>
                        </g>
                        <g id="Body/Pointing-Up" transform="translate(62.000000, 58.000000)">
                            <path d="M79.4949304,20.5072379 L106.288979,10.7252734 C111.287431,5.99313144 116.002118,2.53321144 120.433039,0.345513374 C121.721707,0.0505250722 123.855156,0.221847164 121.189145,3.89982444 C118.523133,7.5778018 115.854902,11.5922993 116.616093,13.1344911 C117.377284,14.6766828 120.150697,13.5141174 120.953375,15.9570424 C121.488495,17.585659 116.893603,18.7521084 107.168703,19.4563904 L86.3358002,34.3670085 L79.4949304,20.5072379 Z M77.1272596,77.9583078 L99.6760373,98.0954484 C105.79173,100.102387 110.901194,102.599357 115.004429,105.586359 C115.973684,106.660466 117.145119,108.83571 113.125384,108.459773 C109.105648,108.083837 104.863586,107.908267 104.308941,109.575698 C103.754295,111.243129 106.186822,113.237194 105.065642,115.486995 C104.318189,116.986862 100.786919,113.226 94.4718324,104.20441 L72.1426273,92.943611 L77.1272596,77.9583078 Z" id="Skin" fill="#D4A181"></path>
                            <path d="M31.9825405,30.6581782 C51.0502841,54.3763814 73.7261511,70.3986535 104.334011,85.1693188 L98.3784466,100.602192 C67.2537804,95.493816 50.5729051,91.8495283 36.5684585,68.3660152 C33.0536268,62.4721295 26.3437438,42.4791646 22.3946373,32.0720368 L31.9825405,30.6581782 Z" id="Coat-Back" fill="#2026A2" transform="translate(63.364324, 65.630185) rotate(15.000000) translate(-63.364324, -65.630185) "></path>
                            <path d="M7.77586207,116.500028 L62.2068966,116.500028 C49.8773561,70.7689019 43.5789587,39.3819002 43.3117044,22.3390225 C43.298079,21.4701602 41.9786127,19.9391019 41.3948512,20.1396076 C37.1258697,21.6058842 32.5577232,21.0576301 27.6904103,18.4948454 C14.786498,43.7341086 10.3241013,74.8087519 7.77586207,116.500028 Z" id="Shirt" fill="#F2F2F2"></path>
                            <path d="M32.3352169,18.5355909 C47.937651,18.6909677 73.2514483,22.1559891 102.445339,10.7575942 L105.327586,28.2725648 C83.2631181,45.5307171 60.9209952,58.8996874 41.3437292,57.0012138 C49.8450035,101.349715 49.4530541,137.653643 30.6845923,137.653643 C21.721718,137.653643 12.0475219,137.653643 1.66200343,137.653643 C-2.94745367,99.9800909 9.16710157,47.744763 20.3981751,21.3976852 C20.8270563,20.3915696 21.7401864,18.4948454 23.8909835,18.4948454 C25.7650072,18.4948454 28.5760436,18.4948454 32.3240911,18.4948454 C32.3278002,18.5084272 32.3315093,18.5220091 32.3352169,18.5355909 Z" id="Coat-Front" fill="#1F28CF"></path>
                        </g>
                    </g>
                    <g id="Humaaan-2" transform="translate(263.000000, 74.000000)">
                        <g id="A-Human/Sitting" transform="translate(104.500000, 118.500000) scale(-1, 1) translate(-104.500000, -118.500000) ">
                            <g id="Head/Front/Short-1" transform="translate(58.013605, 0.000000)">
                                <g id="Head" transform="translate(0.707483, 2.831325)" fill="#784931">
                                    <path d="M5.84541826,24.4131922 C2.58540063,20.5847088 0.378952507,15.8928498 0.747651281,10.6354869 C1.80997512,-4.51243926 22.8860353,-1.1800885 26.9857653,6.46528384 C31.0854954,14.1106562 30.5983409,33.5037771 25.2998051,34.8702185 C23.1867563,35.4151533 18.6853342,34.0802811 14.1039367,31.3175058 L16.9795918,51.6716867 L0,51.6716867 L5.84541826,24.4131922 Z" id="Path"></path>
                                </g>
                                <path d="M20.2047874,10.4054103 C17.9006071,11.6949459 16.2607957,14.1112968 14.2868603,17.2808312 C13.8060994,17.0917765 13.2825154,16.9879518 12.7346939,16.9879518 C10.3903015,16.9879518 8.48979592,18.8893931 8.48979592,21.2349398 C8.48979592,22.4256666 8.97958066,23.5019417 9.76858204,24.2731033 C8.78637024,25.6601711 7.6855925,27.1091492 6.42421888,28.6043063 C1.71708818,25.778829 -1.78396124,17.543886 2.71044538,9.59412133 C6.57739539,-6.32983365 28.4891752,3.55399178 32.7048195,0.868351544 C33.626279,6.64687973 30.6541394,11.3062316 20.2047874,10.4054103 Z" id="Hair" fill="#191847"></path>
                            </g>
                            <g id="Bottom/Sitting/Baggy-Pants" transform="translate(0.000000, 113.253012)">
                                <g id="Objects/Seat/Cube-2" transform="translate(0.000000, 29.728916)" fill="#C5CFD6">
                                    <path d="M11.3197279,0 L92.6802721,0 C98.9319852,0 104,5.07051006 104,11.3253012 L104,76.4457831 C104,82.7005743 98.9319852,87.7710843 92.6802721,87.7710843 L11.3197279,87.7710843 C5.0680148,87.7710843 0,82.7005743 0,76.4457831 L0,11.3253012 C0,5.07051006 5.0680148,0 11.3197279,0 Z M22.6394558,19.8192771 C21.0765275,19.8192771 19.8095238,21.0869046 19.8095238,22.6506024 L19.8095238,65.1204819 C19.8095238,66.6841797 21.0765275,67.9518072 22.6394558,67.9518072 L81.3605442,67.9518072 C82.9234725,67.9518072 84.1904762,66.6841797 84.1904762,65.1204819 L84.1904762,22.6506024 C84.1904762,21.0869046 82.9234725,19.8192771 81.3605442,19.8192771 L22.6394558,19.8192771 Z" id="Seat"></path>
                                </g>
                                <path d="M174.153281,113.960843 C160.204639,96.9192203 150.766654,84.285323 145.839327,76.0591508 C137.402547,61.9739482 130.497446,49.440719 128.318368,44.6530818 C123.122078,33.236347 140.281069,27.8904074 144.164538,33.2155512 C150.042324,41.2753678 162.595188,66.6373414 181.823129,109.301472 L174.153281,113.960843 Z" id="LegLower" fill="#784931"></path>
                                <path d="M145.569979,109.006024 L119.610752,43.6284415 C114.058589,31.710544 140.871012,23.8766204 144.951432,29.422971 C154.215248,42.014904 176.233197,91.6882533 178.993197,95.4398103 L145.569979,109.006024 Z" id="LegLower" fill="#2F3676"></path>
                                <g id="Lower-Leg" transform="translate(105.868219, 74.977143) rotate(39.000000) translate(-105.868219, -74.977143) translate(94.868219, 35.477143)" fill="#784931">
                                    <path d="M1.28087093,74.2904601 C0.568692779,65.3713501 -0.754445962,34.4952484 0.569408129,20.2038447 C0.949830705,16.0970684 1.35063142,12.1264745 1.75454216,8.40170535 C2.95510779,-2.66962683 23.4735979,-2.31965499 21.8441725,8.19866542 C17.7862594,34.3934403 10.6438697,71.1039005 10.1319478,74.2758908 C9.41446742,78.7215713 1.7284527,79.8958429 1.28087093,74.2904601 Z" id="LegLower"></path>
                                </g>
                                <g id="Accessories/Shoe/Flat-Sneaker" transform="translate(93.294115, 105.036361) rotate(30.000000) translate(-93.294115, -105.036361) translate(72.294115, 97.536361)" fill="#E4E4E4">
                                    <path d="M1.18614051,4.53992221 C0.394640699,6.65385105 -0.00110920631,8.23555833 -0.00110920631,9.28504405 C-0.00110920631,10.5614665 0.211428731,12.4240844 0.636504613,14.8728975 C2.11651557,14.8728975 15.4176232,14.8728975 40.5398275,14.8728975 C41.5767735,11.443106 40.9781882,9.59147187 38.7440716,9.31799529 C36.509955,9.04451864 34.6540365,8.79759112 33.1763159,8.57721272 L14.6296339,0.304938578 C14.2727588,0.145763523 13.8544811,0.306173532 13.6953845,0.66322425 C13.6926628,0.66933241 13.6900277,0.675478863 13.6874801,0.68166177 L12.4953137,3.57498588 C10.4271061,4.54043751 8.74647271,5.02316325 7.45341348,5.02316325 C6.40283363,5.02316325 4.95197389,4.5986589 3.10083436,3.74965026 L3.10083823,3.74964184 C2.39045409,3.42383048 1.55058165,3.73587183 1.22493062,4.44660576 C1.21089458,4.47723942 1.1979563,4.50836475 1.18614051,4.53992221 Z" id="shoe"></path>
                                </g>
                                <g id="Accessories/Shoe/Flat-Sneaker" transform="translate(166.965986, 106.882530)" fill="#E4E4E4">
                                    <path d="M1.18724972,4.53148249 C0.395749905,6.64541133 0,8.22711861 0,9.27660433 C0,10.5530268 0.212537937,12.4156446 0.637613819,14.8644578 C2.11762477,14.8644578 15.4187324,14.8644578 40.5409367,14.8644578 C41.5778827,11.4346663 40.9792974,9.58303216 38.7451808,9.30955558 C36.5110642,9.03607893 34.6551457,8.78915141 33.1774251,8.56877301 L14.6307431,0.296498863 C14.2738681,0.137323807 13.8555903,0.297733816 13.6964937,0.654784535 C13.693772,0.660892694 13.6911369,0.667039148 13.6885893,0.673222054 L12.4964229,3.56654616 C10.4282153,4.53199779 8.74758192,5.01472354 7.45452268,5.01472354 C6.40394284,5.01472354 4.9530831,4.59021918 3.10194356,3.74121055 L3.10194743,3.74120212 C2.39156329,3.41539076 1.55169085,3.72743211 1.22603983,4.43816604 C1.21200379,4.46879971 1.19906551,4.49992503 1.18724972,4.53148249 Z" id="shoe"></path>
                                </g>
                                <path d="M110.269779,46.8938623 C88.6937979,43.3771318 74.2419133,40.9724051 66.914125,39.6796821 C46.0270402,35.9949122 39.9361882,24.7495563 43.5374252,0.213926912 L82.0215244,0.213926912 C87.1142763,1.68534186 108.39377,10.785566 145.860006,27.5145994 C152.600921,30.8625311 151.345541,40.7339219 150.113421,43.9861086 C150.063171,44.1187451 138.69928,63.6007785 116.021749,102.432209 L84.5401334,82.367139 L110.328902,49.2582563 C111.009958,47.885842 110.99025,47.0977107 110.269779,46.8938623 Z" id="Leg-and-Butt" fill="#5C63AB"></path>
                            </g>
                            <g id="Body/Hoodie" transform="translate(2.122449, 36.099398)">
                                <path d="M110.920036,68.1015032 L133.48752,84.6814601 C139.608287,86.3338767 144.721989,88.3897622 148.828628,90.8491172 C149.798687,91.7334852 150.971095,93.5244768 146.948024,93.2149485 C142.924954,92.9054203 138.679373,92.7608648 138.124267,94.1337476 C137.569162,95.5066303 140.003706,97.1484479 138.881596,99.0008262 C138.133522,100.235745 134.599324,97.1392312 128.278998,89.7112854 L105.931269,80.4396839 L110.920036,68.1015032 Z M24.2722757,68.6737183 L39.0568249,68.7318877 C29.928048,98.2156586 24.9998648,113.859563 24.2722757,115.6636 C22.6352,119.722685 26.0994723,125.904599 27.5809326,129.226714 C22.7558657,131.386851 23.2699817,123.386983 17.1832896,126.220122 C11.6276393,128.806081 7.40146995,133.491665 0.982718781,129.529148 C0.193571026,129.04198 -0.671206307,127.207704 1.41820513,125.774315 C6.62369088,122.203219 14.1251113,115.953156 15.1386714,113.895901 C16.5208415,111.090464 19.5653762,96.0164033 24.2722757,68.6737183 Z" id="Skin" fill="#784931"></path>
                                <path d="M62.7744032,9.61115419 L68.7773167,8.03212421 C93.0991701,25.5970096 105.671492,62.3292578 135.128342,79.793372 L129.180965,88.6503047 C80.5762784,86.9006701 64.6517482,42.1477059 62.7744032,9.61115419 Z" id="Coat-Back" fill="#E87613" transform="translate(98.951373, 48.341214) rotate(5.000000) translate(-98.951373, -48.341214) "></path>
                                <path d="M39.6190476,83.5240964 C64.1487253,83.5240964 82.1922421,83.5240964 93.749598,83.5240964 C96.223088,83.5240964 95.757006,79.9507069 95.3994476,78.1475555 C91.272797,57.3370033 75.1639158,34.9042354 75.1639158,5.28093862 L59.550117,2.8313253 C46.6354996,23.6121253 42.1694009,49.1974977 39.6190476,83.5240964 Z" id="Shirt" fill="#DDE3E9"></path>
                                <path d="M40.0540374,23.2578923 C37.7863291,22.6057177 35.9905388,21.0846428 34.6666667,18.6946678 C28.9597954,8.39210183 31.0208137,2.71977619 37.1196492,0.855250718 C43.2184846,-1.00927475 48.6573685,2.8313253 58.3744437,2.8313253 C58.9029717,2.8313253 59.3870443,2.86447484 59.8266601,2.93077391 L64.7145922,3.20983098 C78.7386023,50.7622611 82.6063404,82.4885023 76.3178071,98.3885542 L33.7128481,98.3885542 C31.1885495,104.27762 28.7730088,109.232439 26.4662261,113.253012 L14.8571429,113.253012 C13.764565,77.9089349 22.1635299,47.9105616 40.0540374,23.2578923 Z" id="Coat-Front" fill="#FF9B21"></path>
                                <path d="M42.9903659,73.9666981 C44.3302836,85.18327 46.5080981,93.323888 49.5238095,98.3885542 L33.7128481,98.3885542 C36.6573717,91.5191241 39.7498776,83.3785054 42.9903656,73.9666981 L42.9903659,73.9666981 Z" id="Shade" fill-opacity="0.1" fill="#000000"></path>
                            </g>
                        </g>
                    </g>
                </g>
            </g>
        </g>
    </g>
</svg>