<?xml version="1.0" encoding="UTF-8"?>
<svg width="50px" height="70px" viewBox="0 0 50 70" version="1.1" xmlns="http://www.w3.org/2000/svg" xmlns:xlink="http://www.w3.org/1999/xlink">
    <!-- Generator: Sketch 55.2 (78181) - https://sketchapp.com -->
    <title>tech-html5</title>
    <desc>Created with Sketch.</desc>
    <g id="Page-1" stroke="none" stroke-width="1" fill="none" fill-rule="evenodd">
        <g id="polipixel-web" transform="translate(-626.000000, -1294.000000)" fill-rule="nonzero">
            <g id="technologies" transform="translate(240.000000, 1209.000000)">
                <g id="tech-stack" transform="translate(0.000000, 85.000000)">
                    <g id="tech-html5" transform="translate(386.214005, 0.000000)">
                        <path d="M4.703125,0 L7.84765625,0 L7.84765625,3.1171875 L10.7460938,3.1171875 L10.7460938,0 L13.890625,0 L13.890625,9.43359375 L10.7460938,9.43359375 L10.7460938,6.2890625 L7.875,6.2890625 L7.875,9.43359375 L4.703125,9.43359375 M18.046875,3.14453125 L15.2714844,3.14453125 L15.2714844,0 L23.9804688,0 L23.9804688,3.14453125 L21.1914063,3.14453125 L21.1914063,9.43359375 L18.046875,9.43359375 M25.3613281,0 L28.65625,0 L30.6796875,3.32226562 L32.703125,0 L35.9980469,0 L35.9980469,9.43359375 L32.8535156,9.43359375 L32.8535156,4.7578125 L30.6523438,8.1484375 L28.4511719,4.7578125 L28.4511719,9.43359375 L25.3613281,9.43359375 M37.5566406,0 L40.7011719,0 L40.7011719,6.31640625 L45.1582031,6.31640625 L45.1582031,9.43359375 L37.5566406,9.43359375" id="Shape" fill="#000000"></path>
                        <polyline id="Path" fill="#E44D26" points="4.59375 64.3945312 0.08203125 13.7539062 49.6835938 13.7539062 45.171875 64.3671875 24.8417969 70"></polyline>
                        <polyline id="Path" fill="#F16529" points="24.8828125 65.6933594 24.8828125 17.9101562 45.1582031 17.9101562 41.2890625 61.1132812"></polyline>
                        <path d="M9.296875,24.1035156 L24.8828125,24.1035156 L24.8828125,30.3105469 L16.1054688,30.3105469 L16.6796875,36.6679688 L24.8828125,36.6679688 L24.8828125,42.8613281 L10.9921875,42.8613281 M11.265625,45.9785156 L17.5,45.9785156 L17.9375,50.9414062 L24.8828125,52.8007812 L24.8828125,59.28125 L12.140625,55.7265625" id="Shape" fill="#EBEBEB"></path>
                        <path d="M40.4140625,24.1035156 L24.8554688,24.1035156 L24.8554688,30.3105469 L39.8398437,30.3105469 M39.2792969,36.6679688 L24.8554688,36.6679688 L24.8554688,42.875 L32.5117188,42.875 L31.7871094,50.9414063 L24.8554688,52.8007813 L24.8554688,59.2539063 L37.5703125,55.7265625" id="Shape" fill="#FFFFFF"></path>
                    </g>
                </g>
            </g>
        </g>
    </g>
</svg>