<?xml version="1.0" encoding="UTF-8"?>
<svg width="100px" height="36px" viewBox="0 0 100 36" version="1.1" xmlns="http://www.w3.org/2000/svg" xmlns:xlink="http://www.w3.org/1999/xlink">
    <!-- Generator: Sketch 55.2 (78181) - https://sketchapp.com -->
    <title>tech-rails</title>
    <desc>Created with Sketch.</desc>
    <g id="Page-1" stroke="none" stroke-width="1" fill="none" fill-rule="evenodd">
        <g id="polipixel-web" transform="translate(-240.000000, -1446.000000)" fill="#CC0000" fill-rule="nonzero">
            <g id="technologies" transform="translate(240.000000, 1209.000000)">
                <g id="tech-stack" transform="translate(0.000000, 85.000000)">
                    <g id="tech-rails" transform="translate(0.000000, 152.000000)">
                        <path d="M87.020202,30.6818182 L87.020202,35.2525253 C87.020202,35.2525253 92.9292929,35.2525253 95.2777778,35.2525253 C96.969697,35.2525253 99.8737374,34.0151515 99.9747475,30.5555556 C99.9747475,30.4040404 99.9747475,28.9141414 99.9747475,28.7878788 C99.9747475,25.8333333 97.5505051,24.0909091 95.2777778,24.0909091 C94.2171717,24.0909091 91.1616162,24.0909091 91.1616162,24.0909091 L91.1616162,21.969697 L99.3181818,21.969697 L99.3181818,17.3737374 C99.3181818,17.3737374 93.7121212,17.3737374 91.489899,17.3737374 C89.469697,17.3737374 86.7676768,19.040404 86.7676768,22.1464646 C86.7676768,22.4494949 86.7676768,23.459596 86.7676768,23.7373737 C86.7676768,26.8434343 89.4444444,28.4343434 91.489899,28.4343434 C97.1717172,28.459596 90.1262626,28.4343434 95.3787879,28.4343434 C95.3787879,30.6565657 95.3787879,30.6565657 95.3787879,30.6565657" id="Path"></path>
                        <path d="M42.7777778,29.5707071 C42.7777778,29.5707071 47.1969697,29.1919192 47.1969697,23.4848485 C47.1969697,17.7777778 41.8434343,17.2474747 41.8434343,17.2474747 L32.1969697,17.2474747 L32.1969697,35.2525253 L37.0454545,35.2525253 L37.0454545,30.9090909 L41.2373737,35.2525253 L48.4090909,35.2525253 L42.7777778,29.5707071 Z M40.9090909,25.8838384 L37.0454545,25.8838384 L37.0454545,21.7676768 L40.9343434,21.7676768 C40.9343434,21.7676768 42.020202,22.1717172 42.020202,23.8131313 C42.020202,25.4545455 40.9090909,25.8838384 40.9090909,25.8838384 Z" id="Shape"></path>
                        <path d="M59.1666667,17.3737374 C57.9292929,17.3737374 57.7525253,17.3737374 54.2424242,17.3737374 C50.7323232,17.3737374 49.5454545,20.5555556 49.5454545,22.0707071 C49.5454545,25.3535354 49.5454545,35.2525253 49.5454545,35.2525253 L54.469697,35.2525253 L54.469697,32.0959596 L59.0909091,32.0959596 L59.0909091,35.2525253 L63.8636364,35.2525253 C63.8636364,35.2525253 63.8636364,25.530303 63.8636364,22.0707071 C63.8636364,18.2323232 60.3787879,17.3737374 59.1666667,17.3737374 Z M59.0909091,26.9949495 L54.4444444,26.9949495 L54.4444444,22.6262626 C54.4444444,22.6262626 54.4444444,21.6414141 55.9848485,21.6414141 C57.3989899,21.6414141 56.2373737,21.6414141 57.6767677,21.6414141 C59.040404,21.6414141 59.0656566,22.6262626 59.0656566,22.6262626 L59.0656566,26.9949495 L59.0909091,26.9949495 Z" id="Shape"></path>
                        <rect id="Rectangle" x="66.1111111" y="17.3737374" width="5.12626263" height="17.8787879"></rect>
                        <polygon id="Path" points="78.4343434 30.6313131 78.4343434 17.3737374 73.3333333 17.3737374 73.3333333 30.6313131 73.3333333 35.2525253 78.4343434 35.2525253 85.3282828 35.2525253 85.3282828 30.6313131"></polygon>
                        <path d="M1.76767677,35.2525253 L21.7171717,35.2525253 C21.7171717,35.2525253 17.9040404,17.8535354 30.530303,10.8080808 C33.2828283,9.46969697 42.0454545,4.46969697 56.3888889,15.0757576 C56.8434343,14.6969697 57.2727273,14.3939394 57.2727273,14.3939394 C57.2727273,14.3939394 44.1414141,1.28787879 29.520202,2.75252525 C22.1717172,3.40909091 13.1313131,10.1010101 7.82828283,18.9393939 C2.52525253,27.7777778 1.76767677,35.2525253 1.76767677,35.2525253 Z" id="Path"></path>
                        <path d="M1.76767677,35.2525253 L21.7171717,35.2525253 C21.7171717,35.2525253 17.9040404,17.8535354 30.530303,10.8080808 C33.2828283,9.46969697 42.0454545,4.46969697 56.3888889,15.0757576 C56.8434343,14.6969697 57.2727273,14.3939394 57.2727273,14.3939394 C57.2727273,14.3939394 44.1414141,1.28787879 29.520202,2.75252525 C22.1717172,3.40909091 13.1313131,10.1010101 7.82828283,18.9393939 C2.52525253,27.7777778 1.76767677,35.2525253 1.76767677,35.2525253 Z" id="Path"></path>
                        <path d="M1.76767677,35.2525253 L21.7171717,35.2525253 C21.7171717,35.2525253 17.9040404,17.8535354 30.530303,10.8080808 C33.2828283,9.46969697 42.0454545,4.46969697 56.3888889,15.0757576 C56.8434343,14.6969697 57.2727273,14.3939394 57.2727273,14.3939394 C57.2727273,14.3939394 44.1414141,1.28787879 29.520202,2.75252525 C22.1464646,3.40909091 13.1060606,10.1010101 7.8030303,18.9393939 C2.5,27.7777778 1.76767677,35.2525253 1.76767677,35.2525253 Z" id="Path"></path>
                        <path d="M43.3333333,4.16666667 L43.4343434,2.47474747 C43.2070707,2.34848485 42.5757576,2.04545455 40.9848485,1.59090909 L40.8838384,3.25757576 C41.7171717,3.53535354 42.5252525,3.83838384 43.3333333,4.16666667 Z" id="Path"></path>
                        <path d="M40.9343434,9.52020202 L40.8333333,11.1111111 C41.6666667,11.1363636 42.5,11.2373737 43.3333333,11.4141414 L43.4343434,9.84848485 C42.5757576,9.67171717 41.7424242,9.57070707 40.9343434,9.52020202 Z" id="Path"></path>
                        <path d="M31.5909091,1.64141414 C31.6666667,1.64141414 31.7676768,1.64141414 31.8434343,1.64141414 L31.3383838,0.101010101 C30.5555556,0.101010101 29.7474747,0.151515152 28.9141414,0.252525253 L29.3939394,1.74242424 C30.1262626,1.66666667 30.8585859,1.64141414 31.5909091,1.64141414 Z" id="Path"></path>
                        <path d="M32.8030303,10.9343434 L33.3838384,12.6767677 C34.1161616,12.3232323 34.8484848,12.020202 35.5808081,11.7929293 L35.0252525,10.1262626 C34.1666667,10.3787879 33.4343434,10.6565657 32.8030303,10.9343434 Z" id="Path"></path>
                        <path d="M21.3383838,4.29292929 L20.2020202,2.55050505 C19.5707071,2.87878788 18.9141414,3.23232323 18.2323232,3.63636364 L19.3939394,5.4040404 C20.0505051,5 20.6818182,4.62121212 21.3383838,4.29292929 Z" id="Path"></path>
                        <path d="M26.5151515,15.6565657 L27.7272727,17.4747475 C28.1565657,16.8434343 28.6616162,16.2626263 29.2171717,15.6818182 L28.0808081,13.9646465 C27.5,14.4949495 26.969697,15.0757576 26.5151515,15.6565657 Z" id="Path"></path>
                        <path d="M22.8535354,23.7878788 L24.8989899,25.4040404 C25,24.4191919 25.1767677,23.4343434 25.4292929,22.4494949 L23.6111111,21.010101 C23.2828283,21.9444444 23.0555556,22.8787879 22.8535354,23.7878788 Z" id="Path"></path>
                        <path d="M11.7929293,11.7929293 L10,10.2272727 C9.34343434,10.8585859 8.71212121,11.489899 8.13131313,12.1212121 L10.0757576,13.7878788 C10.6060606,13.1060606 11.1868687,12.4242424 11.7929293,11.7929293 Z" id="Path"></path>
                        <path d="M4.16666667,23.0808081 L1.26262626,22.020202 C0.782828283,23.1060606 0.252525253,24.3686869 0,25.0505051 L2.9040404,26.1111111 C3.23232323,25.2525253 3.76262626,24.0151515 4.16666667,23.0808081 Z" id="Path"></path>
                        <path d="M22.4747475,30.2020202 C22.5252525,31.540404 22.6515152,32.6262626 22.7777778,33.3838384 L25.8080808,34.469697 C25.5808081,33.4848485 25.3535354,32.3737374 25.2020202,31.1868687 L22.4747475,30.2020202 Z" id="Path"></path>
                    </g>
                </g>
            </g>
        </g>
    </g>
</svg>