<?xml version="1.0" encoding="UTF-8"?>
<svg width="66px" height="65px" viewBox="0 0 66 65" version="1.1" xmlns="http://www.w3.org/2000/svg" xmlns:xlink="http://www.w3.org/1999/xlink">
    <!-- Generator: Sketch 55.2 (78181) - https://sketchapp.com -->
    <title>tech-js</title>
    <desc>Created with Sketch.</desc>
    <g id="Page-1" stroke="none" stroke-width="1" fill="none" fill-rule="evenodd">
        <g id="polipixel-web" transform="translate(-882.000000, -1297.000000)" fill-rule="nonzero">
            <g id="technologies" transform="translate(240.000000, 1209.000000)">
                <g id="tech-stack" transform="translate(0.000000, 85.000000)">
                    <g id="tech-js" transform="translate(642.462527, 3.000000)">
                        <rect id="background" fill="#F7DF1E" x="0" y="0" width="65" height="65"></rect>
                        <path d="M17.2983871,54.2077005 L22.2903808,51.2156313 C23.2534461,52.9067618 24.1295364,54.3375508 26.2309108,54.3375508 C28.2451809,54.3375508 29.5151172,53.5571927 29.5151172,50.5217717 L29.5151172,29.8790323 L35.6451613,29.8790323 L35.6451613,50.607655 C35.6451613,56.8958456 31.9234921,59.7580645 26.4936473,59.7580645 C21.5897933,59.7580645 18.7433085,57.2427113 17.2983871,54.2071878" id="j" fill="#000000"></path>
                        <path d="M38.7903226,53.5204045 L43.8209828,50.6414547 C45.1452733,52.7790385 46.8663814,54.3493161 49.9113886,54.3493161 C52.4713965,54.3493161 54.1038011,53.0842492 54.1038011,51.3393702 C54.1038011,49.2456237 52.4269144,48.5039999 49.6023614,47.2830023 L48.0581385,46.6282795 C43.6005286,44.7529458 40.6435727,42.3974649 40.6435727,37.4247687 C40.6435727,32.8446741 44.1741009,29.3548387 49.6908039,29.3548387 C53.618541,29.3548387 56.4429636,30.7072192 58.4728379,34.240505 L53.6623709,37.2937725 C52.6031473,35.41831 51.4560028,34.676815 49.6908039,34.676815 C47.8813838,34.676815 46.733848,35.8109116 46.733848,37.2937725 C46.733848,39.1259135 47.8813838,39.8675374 50.5290516,41.0017629 L52.0735354,41.65597 C57.3253021,43.8807126 60.2822581,46.1487768 60.2822581,51.2520824 C60.2822581,56.7485054 55.9132213,59.7580645 50.0437915,59.7580645 C44.3066343,59.7580645 40.5994818,57.0538193 38.7903226,53.5204045" id="s" fill="#000000"></path>
                    </g>
                </g>
            </g>
        </g>
    </g>
</svg>