<?xml version="1.0" encoding="UTF-8"?>
<svg width="66px" height="65px" viewBox="0 0 66 65" version="1.1" xmlns="http://www.w3.org/2000/svg" xmlns:xlink="http://www.w3.org/1999/xlink">
    <!-- Generator: Sketch 55.2 (78181) - https://sketchapp.com -->
    <title>tech-wordpress</title>
    <desc>Created with Sketch.</desc>
    <g id="Page-1" stroke="none" stroke-width="1" fill="none" fill-rule="evenodd">
        <g id="polipixel-web" transform="translate(-373.000000, -1297.000000)" fill="#32373C">
            <g id="technologies" transform="translate(240.000000, 1209.000000)">
                <g id="tech-stack" transform="translate(0.000000, 85.000000)">
                    <g id="tech-wordpress" transform="translate(133.049259, 3.000000)">
                        <path d="M32.4837256,0 C14.5434333,0 0,14.5434333 0,32.4837256 C0,50.424018 14.5434333,64.9675487 32.4837256,64.9675487 C50.424018,64.9675487 64.9674513,50.424018 64.9674513,32.4837256 C64.9674513,14.5434333 50.424018,0 32.4837256,0 M32.4837256,1.94902549 C36.6067916,1.94902549 40.6054123,2.75611694 44.3685907,4.34778861 C46.1774813,5.11287856 47.9223463,6.0600075 49.5546552,7.16266867 C51.1719565,8.25529235 52.6927811,9.51017241 54.07503,10.8924213 C55.4572789,12.2746702 56.7121589,13.7955922 57.8047826,15.4127961 C58.9075412,17.0451049 59.8545727,18.78997 60.6196627,20.5988606 C62.2114318,24.362039 63.0184258,28.3607571 63.0184258,32.4837256 C63.0184258,36.6067916 62.2114318,40.6054123 60.6196627,44.3685907 C59.8545727,46.1774813 58.9075412,47.9223463 57.8047826,49.5546552 C56.7121589,51.1719565 55.4572789,52.6927811 54.07503,54.07503 C52.6927811,55.4572789 51.1719565,56.7121589 49.5546552,57.8047826 C47.9223463,58.9075412 46.1774813,59.8545727 44.3685907,60.6196627 C40.6054123,62.2114318 36.6067916,63.0185232 32.4837256,63.0185232 C28.3607571,63.0185232 24.362039,62.2114318 20.5988606,60.6196627 C18.78997,59.8545727 17.0451049,58.9075412 15.4127961,57.8047826 C13.7955922,56.7121589 12.2746702,55.4572789 10.8924213,54.07503 C9.51017241,52.6927811 8.25529235,51.1719565 7.16266867,49.5546552 C6.0600075,47.9223463 5.11287856,46.1774813 4.34778861,44.3685907 C2.75611694,40.6054123 1.94902549,36.6067916 1.94902549,32.4837256 C1.94902549,28.3607571 2.75611694,24.362039 4.34778861,20.5988606 C5.11287856,18.78997 6.0600075,17.0451049 7.16266867,15.4127961 C8.25529235,13.7955922 9.51017241,12.2746702 10.8924213,10.8924213 C12.2746702,9.51017241 13.7955922,8.25529235 15.4127961,7.16266867 C17.0451049,6.0600075 18.78997,5.11287856 20.5988606,4.34778861 C24.362039,2.75611694 28.3607571,1.94902549 32.4837256,1.94902549" id="Fill-3"></path>
                        <path d="M56.2383801,19.4966574 C56.3546394,20.3587114 56.4203216,21.2836214 56.4203216,22.2799633 C56.4203216,25.0258478 55.9058763,28.1137864 54.3612736,31.9753906 L46.0936049,55.8798958 C54.1414235,51.1880067 59.553575,42.4691387 59.553575,32.4827219 C59.553575,27.77641 58.3508313,23.3519273 56.2383801,19.4966574 L56.2383801,19.4966574 Z M32.9593171,34.8504955 L24.8361687,58.450563 C27.2621207,59.1642961 29.8268433,59.5535165 32.4837549,59.5535165 C35.6360112,59.5535165 38.6601192,59.009446 41.4735375,58.0187564 C41.4011312,57.9029843 41.3343771,57.7800007 41.2793171,57.6457129 L32.9593171,34.8504955 Z M50.7581102,31.117527 C50.7581102,27.7710502 49.5560487,25.4548283 48.5265735,23.6522721 C47.1542646,21.4214175 45.8674205,19.5340787 45.8674205,17.3033216 C45.8674205,14.8153906 47.7541747,12.4991687 50.4132301,12.4991687 C50.5333876,12.4991687 50.6471132,12.5135915 50.7637624,12.5209978 C45.9476229,8.10820915 39.5310412,5.41397376 32.4837549,5.41397376 C23.0262061,5.41397376 14.706596,10.26656 9.86619115,17.614581 C10.5017684,17.6347534 11.1006064,17.647422 11.6083276,17.647422 C14.4390922,17.647422 18.8231327,17.3033216 18.8231327,17.3033216 C20.2815885,17.2178568 20.4539798,19.3616874 18.9962061,19.5340787 C18.9962061,19.5340787 17.5292721,19.7058853 15.8983276,19.7912526 L25.755524,49.1127819 L31.6802691,31.34644 L27.4630652,19.7912526 C26.0046094,19.7058853 24.6239198,19.5340787 24.6239198,19.5340787 C23.1646844,19.4479318 23.3356139,17.2178568 24.7956289,17.3033216 C24.7956289,17.3033216 29.2650367,17.647422 31.9247744,17.647422 C34.755539,17.647422 39.1402616,17.3033216 39.1402616,17.3033216 C40.599497,17.2178568 40.7712061,19.3616874 39.3127504,19.5340787 C39.3127504,19.5340787 37.8443546,19.7058853 36.2147744,19.7912526 L45.997518,48.8894235 L48.7900817,40.0407504 C50.0307339,36.1735915 50.7581102,33.4337489 50.7581102,31.117527 L50.7581102,31.117527 Z M5.41393478,32.4827219 C5.41393478,43.1970022 11.6400967,52.4571147 20.6709063,56.8444685 L7.75793028,21.4663426 C6.25591379,24.8326019 5.41393478,28.5581642 5.41393478,32.4827219 L5.41393478,32.4827219 Z" id="Fill-5"></path>
                    </g>
                </g>
            </g>
        </g>
    </g>
</svg>