<?xml version="1.0" encoding="UTF-8"?>
<svg width="70px" height="48px" viewBox="0 0 70 48" version="1.1" xmlns="http://www.w3.org/2000/svg" xmlns:xlink="http://www.w3.org/1999/xlink">
    <!-- Generator: Sketch 55.2 (78181) - https://sketchapp.com -->
    <title>tech-laravel</title>
    <desc>Created with Sketch.</desc>
    <g id="Page-1" stroke="none" stroke-width="1" fill="none" fill-rule="evenodd">
        <g id="polipixel-web" transform="translate(-240.000000, -1305.000000)" fill="#FB503B" fill-rule="nonzero">
            <g id="technologies" transform="translate(240.000000, 1209.000000)">
                <g id="tech-stack" transform="translate(0.000000, 85.000000)">
                    <path d="M69.5554949,33.3236028 C69.0855875,32.8050843 62.7013282,24.8004546 61.567069,23.4393435 C60.4328097,22.0782324 59.8980875,22.321288 59.2013282,22.4347139 C58.504569,22.5481398 50.4189208,23.8930472 49.479106,24.0550843 C48.5392912,24.2171213 47.9559579,24.5898065 48.5230875,25.3999917 C49.041606,26.1129546 54.3564208,33.6638806 55.5230875,35.3166583 L34.3772542,40.3884176 L17.5902171,12.2749917 C16.9258653,11.2865658 16.7800319,10.9300843 15.2568838,11.0111028 C13.7337356,11.0759176 2.06706898,12.0481398 1.24068009,12.1129546 C0.414291202,12.1777695 -0.509319909,12.5504546 0.333272684,14.5111028 C1.15966157,16.4717509 14.4142912,45.0226769 14.7869764,45.8490658 C15.1596616,46.6754546 16.1156801,48.0203621 18.3679949,47.4856398 C20.6689208,46.9347139 28.6573468,44.8444361 33.0161431,43.7101769 C35.317069,47.8907324 40.0323468,56.3490658 40.8911431,57.5643435 C42.0578097,59.1847139 42.8517912,58.9092509 44.6341986,58.3745287 C46.0277171,57.9532324 66.4119764,50.6291583 67.3355875,50.2402695 C68.2591986,49.8675843 68.8263282,49.5921213 68.1943838,48.6685102 C67.7406801,47.9879546 62.3610505,40.7935102 59.541606,37.0180472 C61.4698468,36.4995287 68.3240134,34.6847139 69.0693838,34.4740658 C69.9119764,34.2634176 70.0254023,33.8421213 69.5554949,33.3236028 Z M31.1203097,41.1823991 C30.8610505,41.2310102 19.0323468,44.0666583 18.4004023,44.2124917 C17.7684579,44.358325 17.7684579,44.2773065 17.7036431,44.0666583 C17.6388282,43.8560102 3.62262454,14.9648065 3.42818009,14.608325 C3.23373565,14.2518435 3.24993935,13.9601769 3.42818009,13.9601769 C3.60642083,13.9601769 14.6087356,12.9717509 14.9976245,12.9555472 C15.3865134,12.9393435 15.3379023,13.0203621 15.4837356,13.2634176 C15.4837356,13.2634176 30.9906801,40.0319361 31.2661431,40.5018435 C31.541606,40.9879546 31.379569,41.133788 31.1203097,41.1823991 Z M64.5161431,47.4370287 C64.7105875,47.7286954 64.8888282,47.9231398 64.3054949,48.133788 C63.7059579,48.3444361 44.2615134,54.9069361 43.8888282,55.0689732 C43.5161431,55.2310102 43.2082727,55.2796213 42.7221616,54.5828621 C42.2360505,53.8861028 35.916606,42.9323991 35.916606,42.9323991 L56.5277171,37.5689732 C57.0462356,37.4069361 57.2082727,37.2935102 57.5323468,37.8120287 C57.8564208,38.3305472 64.3216986,47.1453621 64.5161431,47.4370287 Z M65.8286431,32.8050843 C65.3587356,32.9023065 57.791606,34.7819361 57.791606,34.7819361 L51.6017912,26.2911954 C51.4235505,26.0481398 51.2777171,25.8050843 51.7152171,25.7402695 C52.1527171,25.6754546 59.1851245,24.4115658 59.4929949,24.3467509 C59.817069,24.2819361 60.0925319,24.1847139 60.4814208,24.7194361 C60.8703097,25.2541583 66.2175319,32.0273065 66.4281801,32.2865658 C66.6388282,32.545825 66.2985505,32.7078621 65.8286431,32.8050843 Z" id="tech-laravel"></path>
                </g>
            </g>
        </g>
    </g>
</svg>