<?xml version="1.0" encoding="UTF-8"?>
<svg width="81px" height="60px" viewBox="0 0 81 60" version="1.1" xmlns="http://www.w3.org/2000/svg" xmlns:xlink="http://www.w3.org/1999/xlink">
    <!-- Generator: Sketch 55.2 (78181) - https://sketchapp.com -->
    <title>tech-sass</title>
    <desc>Created with Sketch.</desc>
    <g id="Page-1" stroke="none" stroke-width="1" fill="none" fill-rule="evenodd">
        <g id="polipixel-web" transform="translate(-739.000000, -1299.000000)" fill="#BE5F8B">
            <g id="technologies" transform="translate(240.000000, 1209.000000)">
                <g id="tech-stack" transform="translate(0.000000, 85.000000)">
                    <path d="M555.79617,50.3404927 C555.542197,50.1597307 555.584428,49.5755055 556.419704,47.7559026 C556.747618,47.0414761 557.495801,45.8386853 558.796498,44.6892317 C558.947157,45.1619602 559.039073,45.6152535 559.036442,46.0372751 C559.019638,48.8526035 557.010943,49.9040043 555.79617,50.3404927 Z M545.104176,52.7777844 C544.763695,52.9559161 544.451563,53.0678512 544.306456,52.9814887 C544.200074,52.9179224 544.446887,52.6833848 544.446887,52.6833848 C544.446887,52.6833848 546.18305,50.8158515 546.866789,49.9653786 C547.264553,49.4708768 547.725737,48.8838752 548.228276,48.2273159 C548.232368,48.292928 548.23456,48.3579556 548.23456,48.4222525 C548.229445,50.6597853 546.068046,52.1704707 545.104176,52.7777844 Z M531.225102,46.1554938 C530.421975,48.1134811 528.741048,53.1226497 527.717997,52.85421 C526.839759,52.623764 526.304926,48.815925 527.542642,45.0684374 C528.165591,43.1820534 529.496391,40.928008 530.278183,40.0531315 C531.536795,38.6453212 532.92254,38.1848675 533.259222,38.7556488 C533.688404,39.4829347 531.728663,44.9281532 531.225102,46.1554938 Z M514.42607,57.575796 C512.120148,60.091413 508.89858,61.0421307 507.517073,60.2413417 C506.025385,59.376402 506.616186,55.6728994 509.445981,53.0034081 C511.170746,51.3765499 513.397319,49.8781394 514.874395,48.9551863 C515.210492,48.7529433 515.704409,48.4558623 516.304563,48.0962379 C516.404077,48.0395397 516.46019,48.0081219 516.46019,48.0081219 L516.457998,48.0043225 C516.573879,47.9350572 516.692536,47.8638922 516.815139,47.7906814 C517.844766,51.5903371 516.84641,54.9355306 514.42607,57.575796 Z M568.086234,39.4852727 C565.288587,39.5000318 562.86547,40.1716424 560.834272,41.1727747 C560.09135,39.6901461 559.339515,38.3857954 559.213259,37.4159348 C559.065814,36.2837245 558.894989,35.6083145 559.072975,34.2595405 C559.251106,32.9107665 560.031437,31.0008556 560.020039,30.857795 C560.008641,30.7147343 559.844976,30.0276341 558.231416,30.0159437 C556.617709,30.0043995 555.237371,30.3263225 555.075021,30.7524357 C554.912526,31.1785489 554.601855,32.1374498 554.408525,33.137267 C554.125911,34.6004603 551.186811,39.81874 549.518014,42.5487288 C548.972221,41.4832996 548.508114,40.5438339 548.411376,39.8009122 C548.264078,38.6687019 548.093107,37.9932919 548.271092,36.6443717 C548.449224,35.2957438 549.229555,33.3855408 549.218156,33.2424801 C549.206758,33.0994195 549.04324,32.4124653 547.429533,32.400775 C545.815826,32.3892307 544.435488,32.7111537 544.273139,33.137267 C544.110643,33.5633802 543.937187,34.5589596 543.606643,35.5220982 C543.276098,36.485383 539.369183,45.1901632 538.345986,47.4464006 C537.824596,48.5960003 537.370864,49.5195379 537.050549,50.1503784 C537.049672,50.148771 537.048503,50.1468713 537.048503,50.1468713 C537.048503,50.1468713 537.028775,50.1888104 536.994727,50.2596831 C536.720589,50.7965624 536.557362,51.0936434 536.557362,51.0936434 C536.557362,51.0936434 536.559116,51.0977351 536.562184,51.1047493 C536.344744,51.4990063 536.111668,51.8652065 535.996225,51.8652065 C535.915562,51.8652065 535.754089,50.8157054 536.031443,49.3751621 C536.612745,46.3555449 538.009303,41.6463799 537.995421,41.4841763 C537.988115,41.4010287 538.254947,40.5805123 537.083428,40.1514765 C535.944642,39.7347156 535.539133,40.429853 535.435235,40.4320449 C535.334552,40.4342368 535.259733,40.6776884 535.259733,40.6776884 C535.259733,40.6776884 536.528428,35.3819602 532.839831,35.3819602 C530.533764,35.3819602 527.338353,37.9045914 525.764247,40.1912237 C524.77086,40.7330714 522.645116,41.8934847 520.389755,43.1326617 C519.5235,43.6084589 518.639564,44.0949236 517.801366,44.5566924 C517.744375,44.4935645 517.687531,44.4302905 517.628933,44.3677471 C513.156352,39.5958927 504.888206,36.2207427 505.238916,29.8055174 C505.366487,27.4732928 506.177213,21.3323523 521.126247,13.8832617 C533.371888,7.78119168 543.175123,9.46036422 544.869347,13.1818408 C547.289541,18.4984655 539.630024,28.3800255 526.912824,29.8055174 C522.067466,30.3486803 519.516194,28.4709179 518.881554,27.7713967 C518.213597,27.0351969 518.113936,27.0020255 517.864494,27.1401178 C517.458254,27.3653032 517.715734,28.0152866 517.864494,28.4026755 C518.244284,29.3909484 519.802315,31.1433318 522.458801,32.0149934 C524.795702,32.7818804 530.484518,33.2031713 537.363996,30.5420094 C545.069398,27.5615549 551.086128,19.2704669 549.31884,12.3401356 C547.521595,5.29158567 535.834606,2.97441232 524.773636,6.90412323 C518.190654,9.24277759 511.064364,12.9134011 505.940484,17.7060059 C499.848058,23.4046128 498.87659,28.3643896 499.276838,30.4367963 C500.699262,37.8004012 510.848677,42.5956363 514.912973,46.1495025 C514.712337,46.2601224 514.524269,46.3640204 514.353151,46.45842 C512.315523,47.4664203 504.57885,51.5152267 502.643659,55.7931638 C500.44865,60.6456817 502.9932,64.1272138 504.67778,64.5959968 C509.897374,66.0483766 515.253454,63.4360219 518.13191,59.142595 C521.009782,54.850191 520.658341,49.2610351 519.337478,46.7097625 C519.321111,46.6780524 519.302991,46.647073 519.286186,46.6156552 C519.812252,46.3042535 520.348839,45.9875911 520.880604,45.6753127 C521.917684,45.0663916 522.935621,44.4982406 523.819119,44.017475 C523.32491,45.3719481 522.962801,46.9954454 522.77444,49.340091 C522.5532,52.0946296 523.68205,55.6550716 525.159272,57.0558677 C525.809693,57.6725336 526.592216,57.6870004 527.088179,57.6870004 C528.807099,57.6870004 529.591521,56.2569784 530.455,54.5656772 C531.514292,52.4913708 532.45405,50.076583 532.45405,50.076583 C532.45405,50.076583 531.274493,56.5997979 534.488316,56.5997979 C535.659251,56.5997979 536.8372,55.0813677 537.361804,54.3071743 C537.363266,54.3156498 537.363996,54.3201798 537.363996,54.3201798 C537.363996,54.3201798 537.394537,54.2697652 537.454158,54.1686437 C537.575738,53.9827671 537.644565,53.8644023 537.644565,53.8644023 C537.644565,53.8644023 537.646903,53.8521275 537.650702,53.8307926 C538.121385,53.013491 539.165333,51.1501955 540.730963,48.0775333 C542.753686,44.1076368 544.693845,39.1344161 544.693845,39.1344161 C544.693845,39.1344161 544.874315,40.3503586 545.465408,42.3609525 C545.813196,43.5440159 546.552026,44.8517276 547.134936,46.1058098 C546.665715,46.7568161 546.377255,47.1307612 546.377255,47.1307612 C546.377255,47.1307612 546.380032,47.1376292 546.385146,47.1501964 C546.010179,47.647913 545.589764,48.1850845 545.149915,48.7088122 C543.553452,50.6102475 541.65187,52.7815837 541.397167,53.4083326 C541.097309,54.1467243 541.168182,54.6898871 541.747877,55.1268139 C542.17136,55.4459605 542.925241,55.4954983 543.711856,55.4424534 C545.146554,55.346008 546.156016,54.990183 546.654025,54.7734731 C547.43041,54.498896 548.334512,54.0670838 549.183085,53.4434036 C550.749154,52.2920504 551.693734,50.6450263 551.602988,48.4633149 C551.552719,47.2609624 551.169276,46.0692775 550.684272,44.9442275 C550.826456,44.7399386 550.968932,44.5337501 551.111847,44.3249312 C553.580703,40.715682 555.495728,36.7495849 555.495728,36.7495849 C555.495728,36.7495849 555.676198,37.9653812 556.267437,39.9761213 C556.566564,40.9939123 557.15678,42.1040571 557.687522,43.1930131 C555.366111,45.079251 553.926445,47.2708992 553.426536,48.7088122 C552.502268,51.3679283 553.226193,52.572911 554.584027,52.8471958 C555.199085,52.9715519 556.067678,52.6896684 556.721169,52.4130455 C557.534233,52.1434368 558.511254,51.6943813 559.423831,51.0236475 C560.9899,49.8722942 562.495617,48.2600489 562.40487,46.0784836 C562.36337,45.0852423 562.094053,44.0994536 561.728584,43.1523892 C563.696362,42.3327496 566.244127,41.8769721 569.489222,42.2558855 C576.450825,43.0688032 577.81655,47.4155673 577.555563,49.2348779 C577.29443,51.0543346 575.834159,52.0542979 575.345941,52.3563473 C574.857869,52.6582506 574.708817,52.7630253 574.749879,52.9876261 C574.809208,53.3140791 575.034978,53.301512 575.451154,53.2313699 C576.024273,53.1346323 579.106872,51.7515178 579.238827,48.3933189 C579.406438,44.1298485 575.321683,39.4466946 568.086234,39.4852727 L568.086234,39.4852727 Z" id="tech-sass"></path>
                </g>
            </g>
        </g>
    </g>
</svg>