<?xml version="1.0" encoding="UTF-8"?>
<svg width="62px" height="70px" viewBox="0 0 62 70" version="1.1" xmlns="http://www.w3.org/2000/svg" xmlns:xlink="http://www.w3.org/1999/xlink">
    <!-- Generator: Sketch 55.2 (78181) - https://sketchapp.com -->
    <title>tech-nodejs</title>
    <desc>Created with Sketch.</desc>
    <g id="Page-1" stroke="none" stroke-width="1" fill="none" fill-rule="evenodd">
        <g id="polipixel-web" transform="translate(-501.000000, -1294.000000)" fill="#6CC24A">
            <g id="technologies" transform="translate(240.000000, 1209.000000)">
                <g id="tech-stack" transform="translate(0.000000, 85.000000)">
                    <g id="tech-nodejs" transform="translate(261.267996, 0.000000)">
                        <path d="M30.7548182,69.3738182 C29.8257273,69.3738182 28.9017273,69.1313636 28.0884545,68.6604545 L19.6006364,63.6382727 C18.3336364,62.9293636 18.9521818,62.678 19.3702727,62.5322727 C21.0610909,61.9455455 21.4034545,61.81 23.2081818,60.7867273 C23.3959091,60.6804545 23.6453636,60.7211818 23.8394545,60.8350909 L30.3602727,64.7060909 C30.5963636,64.8371818 30.9298182,64.8371818 31.1474545,64.7060909 L56.5701818,50.0328182 C56.8069091,49.8979091 56.9583636,49.6255455 56.9583636,49.3449091 L56.9583636,20.006 C56.9583636,19.719 56.8069091,19.4510909 56.5638182,19.3053636 L31.1519091,4.64481818 C30.9170909,4.50736364 30.6052727,4.50736364 30.3685455,4.64481818 L4.963,19.3098182 C4.71609091,19.4510909 4.55954545,19.7279091 4.55954545,20.006 L4.55954545,49.3449091 C4.55954545,49.6255455 4.71609091,49.8915455 4.96045455,50.0245455 L11.9248182,54.0482727 C15.7035455,55.9376364 18.0173636,53.7122727 18.0173636,51.4767273 L18.0173636,22.5100909 C18.0173636,22.1002727 18.3463636,21.7776364 18.7561818,21.7776364 L21.9793636,21.7776364 C22.3828182,21.7776364 22.7162727,22.1002727 22.7162727,22.5100909 L22.7162727,51.4767273 C22.7162727,56.5199091 19.9697273,59.4121818 15.1887273,59.4121818 C13.7193636,59.4121818 12.5624545,59.4121818 9.33290909,57.8206364 L2.66636364,53.9827273 C1.01945455,53.0307273 0,51.2508182 0,49.3449091 L0,20.006 C0,18.1000909 1.01945455,16.3201818 2.66636364,15.3726364 L28.0884545,0.682181818 C29.6971818,-0.227181818 31.8353636,-0.227181818 33.4313636,0.682181818 L58.8521818,15.3726364 C60.4984545,16.3246364 61.5223636,18.1000909 61.5223636,20.006 L61.5223636,49.3449091 C61.5223636,51.2508182 60.4984545,53.0243636 58.8521818,53.9827273 L33.4313636,68.6604545 C32.6187273,69.1313636 31.6966364,69.3738182 30.7548182,69.3738182" id="Fill-1"></path>
                        <path d="M38.6076727,49.1611273 C27.4827636,49.1611273 25.1524,44.0549455 25.1524,39.7715818 C25.1524,39.3643091 25.4794909,39.0391273 25.8867636,39.0391273 L29.1735818,39.0391273 C29.5407636,39.0391273 29.8468545,39.3032182 29.9041273,39.6614909 C30.4004909,43.0074909 31.8800364,44.6964 38.6076727,44.6964 C43.9633091,44.6964 46.2434,43.4847636 46.2434,40.6434 C46.2434,39.0054 45.5968545,37.7893091 37.2738545,36.9741273 C30.3177636,36.2862182 26.0153091,34.7494 26.0153091,29.1850364 C26.0153091,24.0553091 30.3387636,20.9963091 37.5882182,20.9963091 C45.7324,20.9963091 49.7624909,23.8230364 50.2728545,29.8875818 C50.2919455,30.0969455 50.2181273,30.2974 50.0787636,30.4533091 C49.9394,30.5990364 49.7453091,30.6881273 49.5404,30.6881273 L46.2408545,30.6881273 C45.8991273,30.6881273 45.5968545,30.4450364 45.5274909,30.1134909 C44.7358545,26.5924909 42.8108545,25.4674 37.5882182,25.4674 C31.7406727,25.4674 31.0610364,27.5044 31.0610364,29.0310364 C31.0610364,30.8803091 31.8628545,31.4180364 39.7582182,32.4629455 C47.5708545,33.4957636 51.2821273,34.9581273 51.2821273,40.4493091 C51.2821273,45.9882182 46.6634,49.1611273 38.6076727,49.1611273" id="Fill-2"></path>
                    </g>
                </g>
            </g>
        </g>
    </g>
</svg>