<?xml version="1.0" encoding="UTF-8"?>
<svg width="20px" height="20px" viewBox="0 0 20 20" version="1.1" xmlns="http://www.w3.org/2000/svg" xmlns:xlink="http://www.w3.org/1999/xlink">
    <!-- Generator: Sketch 55.2 (78181) - https://sketchapp.com -->
    <title>icon-instagram</title>
    <desc>Created with Sketch.</desc>
    <g id="Page-1" stroke="none" stroke-width="1" fill="none" fill-rule="evenodd">
        <g id="polipixel-web" transform="translate(-1090.000000, -40.000000)" fill="#F9F9F9" fill-rule="nonzero">
            <g id="header">
                <g id="social-icons" transform="translate(1030.000000, 40.000000)">
                    <g id="icon-instagram" transform="translate(60.000000, 0.000000)">
                        <path d="M11.8095238,10 C11.8095238,11.047619 10.952381,11.8095238 10,11.8095238 C9.04761905,11.8095238 8.19047619,10.952381 8.19047619,10 C8.19047619,9.04761905 9.04761905,8.19047619 10,8.19047619 C10.952381,8.19047619 11.8095238,8.95238095 11.8095238,10 Z" id="Path"></path>
                        <path d="M14.2857143,6.76190476 C14.1904762,6.57142857 14.0952381,6.28571429 13.9047619,6.0952381 C13.7142857,5.9047619 13.5238095,5.80952381 13.2380952,5.71428571 C13.047619,5.61904762 12.7619048,5.52380952 12.1904762,5.52380952 C11.6190476,5.52380952 11.4285714,5.52380952 10,5.52380952 C8.57142857,5.52380952 8.38095238,5.52380952 7.80952381,5.52380952 C7.23809524,5.61904762 6.95238095,5.61904762 6.76190476,5.71428571 C6.57142857,5.80952381 6.28571429,6 6.19047619,6.19047619 C6,6.28571429 5.80952381,6.57142857 5.71428571,6.76190476 C5.61904762,6.95238095 5.61904762,7.23809524 5.52380952,7.80952381 C5.52380952,8.38095238 5.52380952,8.57142857 5.52380952,10 C5.52380952,11.4285714 5.52380952,11.6190476 5.52380952,12.1904762 C5.52380952,12.7619048 5.61904762,13.047619 5.71428571,13.2380952 C5.80952381,13.4285714 5.9047619,13.7142857 6.0952381,13.9047619 C6.28571429,14.0952381 6.47619048,14.1904762 6.76190476,14.2857143 C6.95238095,14.3809524 7.23809524,14.4761905 7.80952381,14.4761905 C8.38095238,14.4761905 8.57142857,14.4761905 10,14.4761905 C11.4285714,14.4761905 11.6190476,14.4761905 12.1904762,14.4761905 C12.7619048,14.4761905 13.047619,14.3809524 13.2380952,14.2857143 C13.7142857,14.0952381 14.0952381,13.7142857 14.2857143,13.2380952 C14.3809524,13.047619 14.4761905,12.7619048 14.4761905,12.1904762 C14.4761905,11.6190476 14.4761905,11.4285714 14.4761905,10 C14.4761905,8.57142857 14.4761905,8.38095238 14.4761905,7.80952381 C14.3809524,7.23809524 14.3809524,6.95238095 14.2857143,6.76190476 Z M10,12.7619048 C8.47619048,12.7619048 7.23809524,11.5238095 7.23809524,10 C7.23809524,8.47619048 8.47619048,7.23809524 10,7.23809524 C11.5238095,7.23809524 12.7619048,8.47619048 12.7619048,10 C12.7619048,11.5238095 11.5238095,12.7619048 10,12.7619048 Z M12.952381,7.71428571 C12.5714286,7.71428571 12.2857143,7.42857143 12.2857143,7.04761905 C12.2857143,6.66666667 12.5714286,6.38095238 12.952381,6.38095238 C13.3333333,6.38095238 13.6190476,6.66666667 13.6190476,7.04761905 C13.6190476,7.42857143 13.2380952,7.71428571 12.952381,7.71428571 Z" id="Shape"></path>
                        <path d="M10,0.476190476 C4.76190476,0.476190476 0.476190476,4.76190476 0.476190476,10 C0.476190476,15.2380952 4.76190476,19.5238095 10,19.5238095 C15.2380952,19.5238095 19.5238095,15.2380952 19.5238095,10 C19.5238095,4.76190476 15.2380952,0.476190476 10,0.476190476 Z M15.4285714,12.2857143 C15.4285714,12.8571429 15.3333333,13.2380952 15.1428571,13.6190476 C14.8571429,14.3809524 14.2857143,14.952381 13.5238095,15.2380952 C13.1428571,15.3333333 12.7619048,15.4285714 12.1904762,15.5238095 C11.6190476,15.5238095 11.4285714,15.5238095 9.9047619,15.5238095 C8.38095238,15.5238095 8.19047619,15.5238095 7.61904762,15.5238095 C7.04761905,15.5238095 6.66666667,15.4285714 6.28571429,15.2380952 C5.9047619,15.1428571 5.61904762,14.8571429 5.33333333,14.5714286 C5.04761905,14.2857143 4.85714286,14 4.66666667,13.6190476 C4.57142857,13.2380952 4.47619048,12.8571429 4.38095238,12.2857143 C4.38095238,11.7142857 4.38095238,11.5238095 4.38095238,10 C4.38095238,8.47619048 4.38095238,8.28571429 4.38095238,7.71428571 C4.38095238,7.14285714 4.47619048,6.76190476 4.66666667,6.38095238 C4.76190476,6 5.04761905,5.71428571 5.33333333,5.42857143 C5.61904762,5.14285714 5.9047619,4.95238095 6.28571429,4.76190476 C6.66666667,4.66666667 7.04761905,4.57142857 7.61904762,4.47619048 C8.19047619,4.47619048 8.38095238,4.47619048 9.9047619,4.47619048 C11.4285714,4.47619048 11.6190476,4.47619048 12.1904762,4.47619048 C12.7619048,4.47619048 13.1428571,4.57142857 13.5238095,4.76190476 C13.9047619,4.85714286 14.1904762,5.14285714 14.4761905,5.42857143 C14.7619048,5.71428571 14.952381,6 15.1428571,6.38095238 C15.2380952,6.76190476 15.3333333,7.14285714 15.4285714,7.71428571 C15.4285714,8.28571429 15.4285714,8.47619048 15.4285714,10 C15.4285714,11.5238095 15.4285714,11.7142857 15.4285714,12.2857143 Z" id="Shape"></path>
                    </g>
                </g>
            </g>
        </g>
    </g>
</svg>