<?xml version="1.0" encoding="UTF-8"?>
<svg width="20px" height="20px" viewBox="0 0 20 20" version="1.1" xmlns="http://www.w3.org/2000/svg" xmlns:xlink="http://www.w3.org/1999/xlink">
    <!-- Generator: Sketch 55.2 (78181) - https://sketchapp.com -->
    <title>icon-youtube</title>
    <desc>Created with Sketch.</desc>
    <g id="Page-1" stroke="none" stroke-width="1" fill="none" fill-rule="evenodd">
        <g id="polipixel-web" transform="translate(-1120.000000, -40.000000)" fill="#F9F9F9" fill-rule="nonzero">
            <g id="header">
                <g id="social-icons" transform="translate(1030.000000, 40.000000)">
                    <g id="icon-youtube" transform="translate(90.000000, 0.000000)">
                        <polygon id="Path" points="8.85714286 11.8095238 12 10 8.85714286 8.19047619"></polygon>
                        <path d="M10,0.476190476 C4.76190476,0.476190476 0.476190476,4.76190476 0.476190476,10 C0.476190476,15.2380952 4.76190476,19.5238095 10,19.5238095 C15.2380952,19.5238095 19.5238095,15.2380952 19.5238095,10 C19.5238095,4.76190476 15.2380952,0.476190476 10,0.476190476 Z M15.9047619,10 C15.9047619,10 15.9047619,11.9047619 15.6190476,12.8571429 C15.5238095,13.3333333 15.047619,13.8095238 14.5714286,13.9047619 C13.6190476,14.1904762 9.9047619,14.1904762 9.9047619,14.1904762 C9.9047619,14.1904762 6.19047619,14.1904762 5.23809524,13.9047619 C4.76190476,13.8095238 4.28571429,13.3333333 4.19047619,12.8571429 C3.9047619,11.9047619 3.9047619,10 3.9047619,10 C3.9047619,10 3.9047619,8.0952381 4.19047619,7.14285714 C4.28571429,6.66666667 4.76190476,6.19047619 5.23809524,6.0952381 C6.19047619,5.80952381 9.9047619,5.80952381 9.9047619,5.80952381 C9.9047619,5.80952381 13.6190476,5.80952381 14.5714286,6.0952381 C15.047619,6.19047619 15.5238095,6.66666667 15.6190476,7.14285714 C16,8.0952381 15.9047619,10 15.9047619,10 Z" id="Shape"></path>
                    </g>
                </g>
            </g>
        </g>
    </g>
</svg>