<?xml version="1.0" encoding="UTF-8"?>
<svg width="20px" height="20px" viewBox="0 0 20 20" version="1.1" xmlns="http://www.w3.org/2000/svg" xmlns:xlink="http://www.w3.org/1999/xlink">
    <!-- Generator: Sketch 55.2 (78181) - https://sketchapp.com -->
    <title>icon-twitter</title>
    <desc>Created with Sketch.</desc>
    <g id="Page-1" stroke="none" stroke-width="1" fill="none" fill-rule="evenodd">
        <g id="polipixel-web" transform="translate(-1060.000000, -40.000000)" fill="#F9F9F9" fill-rule="nonzero">
            <g id="header">
                <g id="social-icons" transform="translate(1030.000000, 40.000000)">
                    <path d="M50,10 C50,15.525 45.525,20 40,20 C34.475,20 30,15.525 30,10 C30,4.475 34.475,0 40,0 C45.525,0 50,4.475 50,10 Z M38.17,15.275 C42.605,15.275 45.03,11.6 45.03,8.415 C45.03,8.31 45.03,8.205 45.025,8.105 C45.495,7.765 45.905,7.34 46.23,6.855 C45.8,7.045 45.335,7.175 44.845,7.235 C45.345,6.935 45.725,6.465 45.905,5.9 C45.44,6.175 44.925,6.375 44.375,6.485 C43.935,6.015 43.31,5.725 42.615,5.725 C41.285,5.725 40.205,6.805 40.205,8.135 C40.205,8.325 40.225,8.51 40.27,8.685 C38.265,8.585 36.49,7.625 35.3,6.165 C35.095,6.52 34.975,6.935 34.975,7.375 C34.975,8.21 35.4,8.95 36.05,9.38 C35.655,9.37 35.285,9.26 34.96,9.08 C34.96,9.09 34.96,9.1 34.96,9.11 C34.96,10.28 35.79,11.25 36.895,11.475 C36.695,11.53 36.48,11.56 36.26,11.56 C36.105,11.56 35.955,11.545 35.805,11.515 C36.11,12.475 37,13.17 38.055,13.19 C37.23,13.835 36.19,14.22 35.06,14.22 C34.865,14.22 34.675,14.21 34.485,14.185 C35.54,14.875 36.81,15.275 38.17,15.275 L38.17,15.275 Z" id="icon-twitter"></path>
                </g>
            </g>
        </g>
    </g>
</svg>