<?xml version="1.0" encoding="UTF-8"?>
<svg width="20px" height="20px" viewBox="0 0 20 20" version="1.1" xmlns="http://www.w3.org/2000/svg" xmlns:xlink="http://www.w3.org/1999/xlink">
    <!-- Generator: Sketch 55.2 (78181) - https://sketchapp.com -->
    <title>icon-linkedin</title>
    <desc>Created with Sketch.</desc>
    <g id="Page-1" stroke="none" stroke-width="1" fill="none" fill-rule="evenodd">
        <g id="polipixel-web" transform="translate(-1150.000000, -40.000000)" fill="#F9F9F9" fill-rule="nonzero">
            <g id="header">
                <g id="social-icons" transform="translate(1030.000000, 40.000000)">
                    <path d="M130,0 C124.5,0 120,4.5 120,10 C120,15.5 124.5,20 130,20 C135.5,20 140,15.5 140,10 C140,4.5 135.5,0 130,0 Z M127.1,15.1 L124.7,15.1 L124.7,7.8 L127.1,7.8 L127.1,15.1 Z M125.9,6.8 L125.9,6.8 C125,6.8 124.5,6.2 124.5,5.5 C124.5,4.8 125,4.2 125.9,4.2 C126.8,4.2 127.2,4.8 127.3,5.5 C127.3,6.2 126.7,6.8 125.9,6.8 Z M135.9,15.1 L133.5,15.1 L133.5,11.2 C133.5,10.2 133.1,9.5 132.3,9.5 C131.6,9.5 131.2,10 131.1,10.4 C131,10.6 131,10.8 131,11 L131,15.1 L128.4,15.1 C128.4,15.1 128.4,8.5 128.4,7.8 L130.8,7.8 L130.8,8.8 C131.1,8.3 131.7,7.6 133,7.6 C134.6,7.6 135.8,8.6 135.8,10.9 L135.8,15.1 L135.9,15.1 Z" id="icon-linkedin"></path>
                </g>
            </g>
        </g>
    </g>
</svg>