<?xml version="1.0" encoding="UTF-8"?>
<svg width="20px" height="20px" viewBox="0 0 20 20" version="1.1" xmlns="http://www.w3.org/2000/svg" xmlns:xlink="http://www.w3.org/1999/xlink">
    <!-- Generator: Sketch 55.2 (78181) - https://sketchapp.com -->
    <title>icon-github</title>
    <desc>Created with Sketch.</desc>
    <g id="Page-1" stroke="none" stroke-width="1" fill="none" fill-rule="evenodd">
        <g id="polipixel-web" transform="translate(-1180.000000, -40.000000)" fill="#F9F9F9">
            <g id="header">
                <g id="social-icons" transform="translate(1030.000000, 40.000000)">
                    <path d="M159.999079,0 C154.477731,0 150,4.5904205 150,10.2533868 C150,14.7833822 152.865036,18.6260419 156.838761,19.9818304 C157.339083,20.0762447 157.521409,19.7596422 157.521409,19.4877292 C157.521409,19.2447699 157.512815,18.5996059 157.507904,17.7442129 C154.726357,18.3635703 154.139476,16.3695415 154.139476,16.3695415 C153.684582,15.1849574 153.028945,14.8696139 153.028945,14.8696139 C152.120998,14.2338913 153.097701,14.2464799 153.097701,14.2464799 C154.101415,14.3188641 154.629362,15.30329 154.629362,15.30329 C155.521348,16.869937 156.970134,16.417378 157.539826,16.1549064 C157.630682,15.4927479 157.889131,15.0408184 158.174591,14.784641 C155.954142,14.525946 153.619509,13.6460053 153.619509,9.7171139 C153.619509,8.59799041 154.009331,7.68217225 154.649007,6.96588286 C154.545873,6.7065584 154.202707,5.66359573 154.74723,4.25241751 C154.74723,4.25241751 155.586421,3.97672792 157.496854,5.30356275 C158.2943,5.07570971 159.150066,4.96241262 160.000307,4.95800662 C160.849934,4.96241262 161.705086,5.07570971 162.50376,5.30356275 C164.412965,3.97672792 165.250929,4.25241751 165.250929,4.25241751 C165.796679,5.66359573 165.453513,6.7065584 165.350993,6.96588286 C165.991897,7.68217225 166.378649,8.59799041 166.378649,9.7171139 C166.378649,13.6560761 164.040333,14.5227989 161.813131,14.7764585 C162.171644,15.0930609 162.491482,15.7187126 162.491482,16.6754436 C162.491482,18.045709 162.479204,19.1516145 162.479204,19.4877292 C162.479204,19.7621599 162.659689,20.0812801 163.166764,19.981201 C167.13742,18.6222653 170,14.7821233 170,10.2533868 C170,4.5904205 165.522269,0 159.999079,0" id="icon-github"></path>
                </g>
            </g>
        </g>
    </g>
</svg>