<?xml version="1.0" encoding="UTF-8"?>
<svg width="65px" height="65px" viewBox="0 0 65 65" version="1.1" xmlns="http://www.w3.org/2000/svg" xmlns:xlink="http://www.w3.org/1999/xlink">
    <!-- Generator: Sketch 55.2 (78181) - https://sketchapp.com -->
    <title>tech-swift</title>
    <desc>Created with Sketch.</desc>
    <g id="Page-1" stroke="none" stroke-width="1" fill="none" fill-rule="evenodd">
        <g id="polipixel-web" transform="translate(-533.000000, -1432.000000)" fill-rule="nonzero">
            <g id="technologies" transform="translate(240.000000, 1209.000000)">
                <g id="tech-stack" transform="translate(0.000000, 85.000000)">
                    <g id="tech-swift" transform="translate(293.105929, 138.000000)">
                        <path d="M64.8762269,17.9706975 C64.8724034,17.3181849 64.8651933,16.666 64.8471681,16.0127227 C64.8091513,14.5916807 64.7251429,13.1577479 64.4725714,11.7518908 C64.2162857,10.3241849 63.7973361,8.99665546 63.1370672,7.69971429 C62.4889244,6.42604202 61.6416303,5.26052101 60.6309076,4.24979832 C59.6204034,3.23907563 58.4548824,2.39189076 57.1806639,1.74342017 C55.8848151,1.08391597 54.5570672,0.66507563 53.1306723,0.408789916 C51.7240504,0.155453782 50.2901176,0.0719915966 48.8679832,0.0335378151 C48.2150336,0.0158403361 47.5627395,0.00841176471 46.9100084,0.0043697479 C46.1352521,0 45.3599496,0 44.5854118,0 L27.4105546,0 L20.2954034,0 C19.5201008,0 18.7456723,0 17.9711345,0.0044789916 C17.3181849,0.0085210084 16.6651261,0.0159495798 16.0131597,0.0336470588 C15.6576807,0.0432605042 15.301437,0.0557142857 14.9449748,0.0728655462 C13.8756975,0.124428571 12.8047815,0.21892437 11.7503613,0.40889916 C10.6805378,0.601168067 9.66610084,0.884764706 8.67919328,1.29278992 C8.3502605,1.42868908 8.02427731,1.57857143 7.7002605,1.74342017 C6.74459664,2.22977311 5.84989076,2.82788235 5.03613445,3.52289076 C4.76488235,3.75459664 4.50258824,3.9970084 4.25001681,4.24968908 C3.23907563,5.26041176 2.39178151,6.42593277 1.74363866,7.69960504 C1.08336975,8.99654622 0.664966387,10.3240756 0.408462185,11.7517815 C0.156109244,13.1576387 0.072210084,14.5915714 0.0339747899,16.0126134 C0.0160588235,16.6658908 0.0085210084,17.3180756 0.0042605042,17.9705882 C-4.16339869e-05,18.745563 -4.16339869e-05,19.5206471 -4.16339869e-05,20.2954034 L-4.16339869e-05,30.8722689 L-4.16339869e-05,44.585084 C-4.16339869e-05,45.360605 -0.000764705882,46.1349244 0.0042605042,46.9104454 C0.0085210084,47.562958 0.0160588235,48.2151429 0.0339747899,48.8673277 C0.072210084,50.2891345 0.156,51.723395 0.408462185,53.1285966 C0.664966387,54.5558655 1.08336975,55.8845966 1.74363866,57.1812101 C2.39178151,58.4552101 3.23907563,59.6204034 4.25001681,60.6306891 C5.26019328,61.6418487 6.42604202,62.4889244 7.70036975,63.1378319 C8.99632773,63.7974454 10.3239664,64.2157395 11.7506891,64.4720252 C13.156437,64.7250336 14.5914622,64.8091513 16.0132689,64.8471681 C16.6652353,64.8645378 17.3182941,64.8722941 17.9712437,64.8760084 C18.7457815,64.8815798 19.5202101,64.8808506 20.2955126,64.8808506 L44.5854118,64.8808506 C45.3599496,64.8808506 46.1352521,64.8815798 46.9098992,64.8760084 C47.5626303,64.8722941 48.2149244,64.8645378 48.8678739,64.8471681 C50.2900084,64.8091513 51.7239412,64.7249244 53.130563,64.4720252 C54.556958,64.2157395 55.8847059,63.7973361 57.1805546,63.1378319 C58.4547731,62.4890336 59.6202941,61.6418487 60.6307983,60.6306891 C61.641521,59.6202941 62.4889244,58.4552101 63.136958,57.1812101 C63.7972269,55.8845966 64.2161765,54.5559748 64.4724622,53.1285966 C64.7250336,51.723395 64.809042,50.2891345 64.8470588,48.8673277 C64.8649748,48.2151429 64.8721849,47.5630672 64.8761176,46.9104454 C64.8807544,46.1349244 64.8807544,45.360605 64.8807544,44.585084 L64.8807544,20.2954034 C64.8807544,19.5206471 64.8807544,18.745563 64.8762269,17.9706975 Z" id="Path" fill="#F05138"></path>
                        <path d="M51.4107395,40.0495042 C51.4092101,40.0475378 51.4077899,40.0461176 51.4061513,40.0442605 C51.4779244,39.7999916 51.5519916,39.5572521 51.6148067,39.3068655 C54.3076639,28.5781513 47.7354538,15.8938655 36.6138992,9.2152521 C41.4875882,15.8222017 43.6425294,23.8247395 41.7279244,30.8231092 C41.5571765,31.4473277 41.3519076,32.0464202 41.1250084,32.6286891 C40.8787731,32.4668992 40.568521,32.2832605 40.1518655,32.053521 C40.1518655,32.053521 29.0888655,25.2228403 17.0983866,13.1410336 C16.7837647,12.8238992 23.4922017,22.7293529 31.1055042,30.7728571 C27.5185966,28.7598235 17.5223613,21.4867059 11.1940924,15.6947143 C11.9715798,16.9913277 12.8963277,18.2398739 13.9128403,19.4418824 C19.1975042,26.1438739 26.0893613,34.4130756 34.3461092,40.7628655 C28.5448319,44.3130672 20.3475126,44.5891261 12.1858067,40.7665798 C10.1670924,39.8205294 8.26931092,38.679042 6.51256303,37.3821008 C9.96739496,42.9081933 15.2883277,47.6760252 21.7644034,50.4594454 C29.4873866,53.7783782 37.1673277,53.5533361 42.8873277,50.5138487 L42.8828487,50.5204034 C42.908958,50.5039076 42.9421681,50.4858824 42.9692605,50.4691681 C43.2041345,50.3428824 43.4372605,50.2143025 43.6652521,50.0785126 C46.4134958,48.6520084 51.8418151,47.2047479 54.7554538,52.8738403 C55.4690336,54.2612353 56.9853361,46.9086975 51.4107395,40.0495042 Z" id="Path" fill="#FFFFFF"></path>
                    </g>
                </g>
            </g>
        </g>
    </g>
</svg>