<?xml version="1.0" encoding="UTF-8"?>
<svg width="61px" height="65px" viewBox="0 0 61 65" version="1.1" xmlns="http://www.w3.org/2000/svg" xmlns:xlink="http://www.w3.org/1999/xlink">
    <!-- Generator: Sketch 55.2 (78181) - https://sketchapp.com -->
    <title>tech-angular</title>
    <desc>Created with Sketch.</desc>
    <g id="Page-1" stroke="none" stroke-width="1" fill="none" fill-rule="evenodd">
        <g id="polipixel-web" transform="translate(-1011.000000, -1297.000000)" fill-rule="nonzero">
            <g id="technologies" transform="translate(240.000000, 1209.000000)">
                <g id="tech-stack" transform="translate(0.000000, 85.000000)">
                    <g id="tech-angular" transform="translate(770.681264, 3.000000)">
                        <polygon id="Path" fill="#DD0031" points="30.55 0 30.55 0 30.55 0 0.2925 10.79 4.9075 50.7975 30.55 65 30.55 65 30.55 65 56.1925 50.7975 60.8075 10.79"></polygon>
                        <polygon id="Path" fill="#C3002F" points="30.55 0 30.55 7.215 30.55 7.1825 30.55 40.105 30.55 40.105 30.55 65 30.55 65 56.1925 50.7975 60.8075 10.79"></polygon>
                        <path d="M30.55,7.1825 L11.635,49.595 L11.635,49.595 L18.6875,49.595 L18.6875,49.595 L22.49,40.105 L38.545,40.105 L42.3475,49.595 L42.3475,49.595 L49.4,49.595 L49.4,49.595 L30.55,7.1825 L30.55,7.1825 L30.55,7.1825 L30.55,7.1825 L30.55,7.1825 Z M36.075,34.255 L25.025,34.255 L30.55,20.9625 L36.075,34.255 Z" id="Shape" fill="#FFFFFF"></path>
                    </g>
                </g>
            </g>
        </g>
    </g>
</svg>