<?xml version="1.0" encoding="UTF-8"?>
<svg width="48px" height="70px" viewBox="0 0 48 70" version="1.1" xmlns="http://www.w3.org/2000/svg" xmlns:xlink="http://www.w3.org/1999/xlink">
    <!-- Generator: Sketch 55.2 (78181) - https://sketchapp.com -->
    <title>tech-figma</title>
    <desc>Created with Sketch.</desc>
    <g id="Page-1" stroke="none" stroke-width="1" fill="none" fill-rule="evenodd">
        <g id="polipixel-web" transform="translate(-1026.000000, -1429.000000)" fill-rule="nonzero">
            <g id="technologies" transform="translate(240.000000, 1209.000000)">
                <g id="tech-stack" transform="translate(0.000000, 85.000000)">
                    <g id="tech-figma" transform="translate(786.789698, 135.000000)">
                        <path d="M11.6643343,69.9860056 C18.1030468,69.9860056 23.3286685,64.7603838 23.3286685,58.3216713 L23.3286685,46.6573371 L11.6643343,46.6573371 C5.22562175,46.6573371 0,51.8829588 0,58.3216713 C0,64.7603838 5.22562175,69.9860056 11.6643343,69.9860056 Z" id="path0_fill" fill="#0ACF83"></path>
                        <path d="M0,34.9930028 C0,28.5542903 5.22562175,23.3286685 11.6643343,23.3286685 L23.3286685,23.3286685 L23.3286685,46.6573371 L11.6643343,46.6573371 C5.22562175,46.6573371 0,41.4317153 0,34.9930028 Z" id="path1_fill" fill="#A259FF"></path>
                        <path d="M0,11.6643343 C0,5.22562175 5.22562175,0 11.6643343,0 L23.3286685,0 L23.3286685,23.3286685 L11.6643343,23.3286685 C5.22562175,23.3286685 0,18.1030468 0,11.6643343 Z" id="path1_fill_1_" fill="#F24E1E"></path>
                        <path d="M23.3286685,0 L34.9930028,0 C41.4317153,0 46.6573371,5.22562175 46.6573371,11.6643343 C46.6573371,18.1030468 41.4317153,23.3286685 34.9930028,23.3286685 L23.3286685,23.3286685 L23.3286685,0 Z" id="path2_fill" fill="#FF7262"></path>
                        <path d="M46.6573371,34.9930028 C46.6573371,41.4317153 41.4317153,46.6573371 34.9930028,46.6573371 C28.5542903,46.6573371 23.3286685,41.4317153 23.3286685,34.9930028 C23.3286685,28.5542903 28.5542903,23.3286685 34.9930028,23.3286685 C41.4317153,23.3286685 46.6573371,28.5542903 46.6573371,34.9930028 Z" id="path3_fill" fill="#1ABCFE"></path>
                    </g>
                </g>
            </g>
        </g>
    </g>
</svg>